<svg xmlns="http://www.w3.org/2000/svg" viewBox="0 0 24 24" fill="none" aria-hidden="true">
  <defs>
    <linearGradient id="ppb" x1="4" y1="6" x2="20" y2="18" gradientUnits="userSpaceOnUse">
      <stop stop-color="#F0D8FF"/>
      <stop offset="0.5" stop-color="#A070E8"/>
      <stop offset="1" stop-color="#503098"/>
    </linearGradient>
    <radialGradient id="ppb2" cx="12" cy="12" r="7" gradientUnits="userSpaceOnUse">
      <stop stop-color="#F8F0FF" stop-opacity="0.5"/>
      <stop offset="1" stop-color="#180820" stop-opacity="0"/>
    </radialGradient>
  </defs>
  <circle cx="12" cy="12" r="10" fill="none" stroke="url(#ppb)" stroke-width="0.75" opacity="0.45"/>
  <circle cx="12" cy="12" r="8.5" fill="#120818" stroke="url(#ppb)" stroke-width="1.2"/>
  <circle cx="12" cy="12" r="6" fill="url(#ppb2)"/>
  <path d="M8.5 11c0-1.2 1-2 2.2-1.7 1.2.4 1.8 1.8 1.3 3-.5 1.1-1.8 1.4-2.8.7" fill="none" stroke="url(#ppb)" stroke-width="1" stroke-linecap="round" opacity="0.9"/>
  <path d="M15.5 11c0-1.2-1-2-2.2-1.7-1.2.4-1.8 1.8-1.3 3 .5 1.1 1.8 1.4 2.8.7" fill="none" stroke="url(#ppb)" stroke-width="1" stroke-linecap="round" opacity="0.9"/>
  <circle cx="12" cy="14.5" r="1.1" fill="url(#ppb)" opacity="0.95"/>
  <path d="M17 2.5l1 2.2 2.4.4-2.4.4-1 2.2-1-2.2-2.4-.4 2.4-.4 1-2.2z" fill="#F8E8FF" opacity="0.95"/>
  <path d="M6 6.5l0.8 1.6 1.8.3-1.8.3L6 10.3 5.2 8.7 3.4 8.4l1.8-.3L6 6.5z" fill="#D8B8FF" opacity="0.75"/>
</svg>
