<svg xmlns="http://www.w3.org/2000/svg" viewBox="0 0 24 24" fill="none" aria-hidden="true">
  <defs>
    <linearGradient id="pp" x1="4" y1="6" x2="20" y2="18" gradientUnits="userSpaceOnUse">
      <stop stop-color="#D8C0FF"/>
      <stop offset="1" stop-color="#7050B8"/>
    </linearGradient>
  </defs>
  <circle cx="12" cy="12" r="8.5" fill="#120818" stroke="url(#pp)" stroke-width="1.2"/>
  <path d="M8.5 11c0-1.2 1-2 2.2-1.7 1.2.4 1.8 1.8 1.3 3-.5 1.1-1.8 1.4-2.8.7" fill="none" stroke="url(#pp)" stroke-width="1" stroke-linecap="round" opacity="0.9"/>
  <path d="M15.5 11c0-1.2-1-2-2.2-1.7-1.2.4-1.8 1.8-1.3 3 .5 1.1 1.8 1.4 2.8.7" fill="none" stroke="url(#pp)" stroke-width="1" stroke-linecap="round" opacity="0.9"/>
  <circle cx="12" cy="14.5" r="1.1" fill="url(#pp)" opacity="0.95"/>
  <path d="M17 3.5l1 2.2 2.4.4-2.4.4-1 2.2-1-2.2-2.4-.4 2.4-.4 1-2.2z" fill="#E8E0FF" opacity="0.85"/>
</svg>
