<svg xmlns="http://www.w3.org/2000/svg" width="36" height="36" viewBox="0 0 36 36" fill="none">
  <ellipse cx="18" cy="22" rx="14" ry="8" fill="rgba(30, 52, 72, 0.95)" stroke="#5a9aba" stroke-width="1.1"/>
  <ellipse cx="18" cy="20.5" rx="10" ry="5" fill="rgba(60, 110, 150, 0.45)"/>
  <path d="M6 18c2.2-1.4 4-1.4 6.2 0s4 1.4 6.2 0 4-1.4 6.2 0 4-1.4 6.2 0 4-1.4 6.2 0" stroke="#7ec0e8" stroke-width="1" stroke-linecap="round" opacity="0.9"/>
  <path d="M7 21c2-1.1 3.8-1.1 5.8 0s3.8 1.1 5.8 0 3.8-1.1 5.8 0" stroke="#4a8aaa" stroke-width="0.85" stroke-linecap="round" opacity="0.75"/>
  <circle cx="12" cy="19" r="1.3" fill="rgba(140, 210, 255, 0.55)"/>
  <circle cx="22" cy="18.5" r="1.1" fill="rgba(120, 200, 245, 0.45)"/>
  <path d="M18 6v4M15 8l1.4 1.4M21 8l-1.4 1.4" stroke="#9ad4f0" stroke-width="1" stroke-linecap="round"/>
  <ellipse cx="18" cy="10" rx="2.2" ry="3" fill="rgba(130, 200, 240, 0.55)" stroke="#7ec0e8" stroke-width="0.8"/>
</svg>
