<svg width="96" height="96" viewBox="0 0 96 96" fill="none" xmlns="http://www.w3.org/2000/svg">
  <defs>
    <linearGradient id="critEchoA" x1="16" y1="14" x2="80" y2="84" gradientUnits="userSpaceOnUse">
      <stop stop-color="#FFD2A1"/>
      <stop offset="0.52" stop-color="#FF8E68"/>
      <stop offset="1" stop-color="#A86CFF"/>
    </linearGradient>
  </defs>
  <circle cx="48" cy="48" r="38" fill="#160D1E" stroke="url(#critEchoA)" stroke-width="2.4" opacity="0.96"/>
  <circle cx="48" cy="48" r="30" fill="none" stroke="url(#critEchoA)" stroke-width="1.2" opacity="0.32" stroke-dasharray="4 4"/>
  <circle cx="48" cy="48" r="22" fill="none" stroke="url(#critEchoA)" stroke-width="1.4" opacity="0.48" stroke-dasharray="2.6 3.8"/>
  <path d="M48 21 L55 37 L73 40 L59 52 L63 71 L48 62 L33 71 L37 52 L23 40 L41 37 Z" fill="url(#critEchoA)" opacity="0.22"/>
  <path d="M48 30 L53 41 L65 43 L56 51 L58 63 L48 57 L38 63 L40 51 L31 43 L43 41 Z" fill="url(#critEchoA)" opacity="0.9"/>
  <path d="M48 35 V58" stroke="#FFF1E3" stroke-width="2.2" stroke-linecap="round" opacity="0.9"/>
  <circle cx="48" cy="64.5" r="3.2" fill="#FFF1E3" opacity="0.96"/>
</svg>
