<svg xmlns="http://www.w3.org/2000/svg" viewBox="0 0 248 48" role="img" aria-label="vortex affix banner deco">
  <defs>
    <linearGradient id="affix-vortex-line" x1="0%" y1="0%" x2="100%" y2="0%">
      <stop offset="0%" stop-color="#b49bff" stop-opacity="0.04" />
      <stop offset="45%" stop-color="#c0b2ff" stop-opacity="0.62" />
      <stop offset="55%" stop-color="#5fdcff" stop-opacity="0.62" />
      <stop offset="100%" stop-color="#5fdcff" stop-opacity="0.04" />
    </linearGradient>
  </defs>
  <path d="M14 24h220" fill="none" stroke="url(#affix-vortex-line)" stroke-width="2.4" stroke-linecap="round" />
  <path d="M34 24c5-6 12-9 20-9 8 0 15 3 20 9-5 6-12 9-20 9-8 0-15-3-20-9z" fill="none" stroke="#c8bcff" stroke-opacity="0.56" stroke-width="1.6" />
  <path d="M214 24c-5-6-12-9-20-9-8 0-15 3-20 9 5 6 12 9 20 9 8 0 15-3 20-9z" fill="none" stroke="#74deff" stroke-opacity="0.58" stroke-width="1.6" />
  <circle cx="124" cy="24" r="5.6" fill="#e8f3ff" fill-opacity="0.52" />
  <path d="M124 14v20M114 24h20" fill="none" stroke="#d8cbff" stroke-opacity="0.48" stroke-width="1.3" stroke-linecap="round" />
</svg>
