<svg width="96" height="96" viewBox="0 0 96 96" fill="none" xmlns="http://www.w3.org/2000/svg">
  <defs>
    <linearGradient id="dlg" x1="16" y1="12" x2="80" y2="84" gradientUnits="userSpaceOnUse">
      <stop stop-color="#7EC8E3"/>
      <stop offset="1" stop-color="#2A8FA8"/>
    </linearGradient>
    <linearGradient id="dlm" x1="48" y1="8" x2="52" y2="28" gradientUnits="userSpaceOnUse">
      <stop stop-color="#E8F8FF"/>
      <stop offset="1" stop-color="#9FD4E8"/>
    </linearGradient>
  </defs>
  <rect x="14" y="22" width="68" height="62" rx="8" fill="#0E1820" stroke="url(#dlg)" stroke-width="3"/>
  <path d="M22 34H74M22 46H68M22 58H72M22 70H60" stroke="#5AA8BC" stroke-width="2.2" stroke-linecap="round" opacity="0.75"/>
  <circle cx="48" cy="16" r="10" fill="url(#dlm)" opacity="0.95"/>
  <path d="M48 10c-2 3-6 5-6 9 0 3 2.5 5 6 5s6-2 6-5c0-4-4-6-6-9z" fill="#1A4050" opacity="0.85"/>
  <circle cx="76" cy="30" r="6" fill="#4ECDC4" opacity="0.9"/>
  <circle cx="76" cy="30" r="2.2" fill="#0A2028"/>
</svg>
