<svg width="100" height="100" viewBox="0 0 100 100" fill="none" xmlns="http://www.w3.org/2000/svg">
  <defs>
    <linearGradient id="duelA" x1="14" y1="18" x2="86" y2="84" gradientUnits="userSpaceOnUse">
      <stop stop-color="#A8D0FF"/>
      <stop offset="0.45" stop-color="#5A7AE0"/>
      <stop offset="0.78" stop-color="#E8707A"/>
      <stop offset="1" stop-color="#FFB86C"/>
    </linearGradient>
    <linearGradient id="duelBlade" x1="32" y1="30" x2="68" y2="72" gradientUnits="userSpaceOnUse">
      <stop stop-color="#E8F0FF"/>
      <stop offset="1" stop-color="#7A9AE8"/>
    </linearGradient>
    <filter id="duelGlow" x="4" y="4" width="92" height="92" filterUnits="userSpaceOnUse">
      <feGaussianBlur stdDeviation="2.4" result="b"/>
      <feMerge><feMergeNode in="b"/><feMergeNode in="SourceGraphic"/></feMerge>
    </filter>
    <filter id="duelCoreGlow" x="38" y="38" width="24" height="24" filterUnits="userSpaceOnUse">
      <feGaussianBlur stdDeviation="1.8" result="c"/>
      <feMerge><feMergeNode in="c"/><feMergeNode in="SourceGraphic"/></feMerge>
    </filter>
  </defs>
  <circle cx="50" cy="50" r="46" fill="none" stroke="url(#duelA)" stroke-width="0.9" opacity="0.28"/>
  <circle cx="50" cy="50" r="40" fill="#080C18" stroke="url(#duelA)" stroke-width="2.2" opacity="0.96"/>
  <circle cx="50" cy="50" r="34" fill="none" stroke="url(#duelA)" stroke-width="0.6" opacity="0.2" stroke-dasharray="4 5"/>
  <path d="M50 22 L58 44 L78 48 L62 60 L66 82 L50 72 L34 82 L38 60 L22 48 L42 44 Z" fill="url(#duelA)" opacity="0.18" filter="url(#duelGlow)"/>
  <path d="M30 38 L50 28 L70 38" stroke="url(#duelBlade)" stroke-width="2.4" stroke-linecap="round" stroke-linejoin="round" fill="none" opacity="0.88"/>
  <path d="M30 62 L50 74 L70 62" stroke="url(#duelA)" stroke-width="2.2" stroke-linecap="round" stroke-linejoin="round" fill="none" opacity="0.5"/>
  <path d="M36 50 L64 50" stroke="url(#duelBlade)" stroke-width="1.8" stroke-linecap="round" opacity="0.35"/>
  <circle cx="50" cy="52" r="7" fill="#F4F7FF" opacity="0.95" filter="url(#duelCoreGlow)"/>
  <circle cx="50" cy="52" r="3.2" fill="#8EB8FF" opacity="0.55"/>
</svg>
