<svg width="96" height="96" viewBox="0 0 96 96" fill="none" xmlns="http://www.w3.org/2000/svg" role="img" aria-label="dungeon hit trace ring feedback">
  <defs>
    <linearGradient id="hitTraceA" x1="14" y1="10" x2="82" y2="84" gradientUnits="userSpaceOnUse">
      <stop stop-color="#f3faff"/>
      <stop offset="0.46" stop-color="#82d6ff"/>
      <stop offset="1" stop-color="#5f86ff"/>
    </linearGradient>
    <radialGradient id="hitTraceB" cx="0" cy="0" r="1" gradientUnits="userSpaceOnUse" gradientTransform="translate(48 48) rotate(90) scale(30)">
      <stop stop-color="#edf8ff" stop-opacity="0.76"/>
      <stop offset="1" stop-color="#edf8ff" stop-opacity="0"/>
    </radialGradient>
  </defs>
  <circle cx="48" cy="48" r="37.5" fill="#0a162a" stroke="url(#hitTraceA)" stroke-width="2.2" opacity="0.96"/>
  <circle cx="48" cy="48" r="31" fill="none" stroke="#dbebff" stroke-width="1.2" opacity="0.5" stroke-dasharray="4 4.8"/>
  <circle cx="48" cy="48" r="25" fill="none" stroke="url(#hitTraceA)" stroke-width="2.1" opacity="0.9"/>
  <circle cx="48" cy="48" r="19" fill="url(#hitTraceB)" opacity="0.82"/>
  <circle cx="48" cy="48" r="13.5" fill="none" stroke="#f2f9ff" stroke-width="1.8" opacity="0.95"/>
  <path d="M48 17V27M48 69V79M17 48H27M69 48H79" stroke="#d9eaff" stroke-width="2.1" stroke-linecap="round" opacity="0.9"/>
  <path d="M32 24l3 6 6 3-6 3-3 6-3-6-6-3 6-3 3-6zM64 54l2.5 5 5 2.5-5 2.5-2.5 5-2.5-5-5-2.5 5-2.5 2.5-5z" fill="#f7fcff" opacity="0.9"/>
  <circle cx="48" cy="48" r="6.2" fill="#ffffff" opacity="0.95"/>
  <circle cx="48" cy="48" r="2.5" fill="#6f98ff" opacity="0.92"/>
</svg>
