<svg width="96" height="96" viewBox="0 0 96 96" fill="none" xmlns="http://www.w3.org/2000/svg" role="img" aria-label="dungeon weakness ping feedback polished">
  <defs>
    <linearGradient id="weakPingA" x1="18" y1="12" x2="78" y2="86" gradientUnits="userSpaceOnUse">
      <stop stop-color="#F6FCFF"/>
      <stop offset="0.42" stop-color="#8AE1FF"/>
      <stop offset="1" stop-color="#5D7EFF"/>
    </linearGradient>
    <radialGradient id="weakPingB" cx="0" cy="0" r="1" gradientUnits="userSpaceOnUse" gradientTransform="translate(48 48) rotate(90) scale(32)">
      <stop stop-color="#EDF8FF" stop-opacity="0.76"/>
      <stop offset="1" stop-color="#ECF8FF" stop-opacity="0"/>
    </radialGradient>
    <radialGradient id="weakPingCore" cx="0" cy="0" r="1" gradientUnits="userSpaceOnUse" gradientTransform="translate(48 48) rotate(90) scale(10)">
      <stop stop-color="#FAFDFF"/>
      <stop offset="1" stop-color="#DDEBFF" stop-opacity="0"/>
    </radialGradient>
  </defs>
  <circle cx="48" cy="48" r="35.5" fill="#0A1428" stroke="url(#weakPingA)" stroke-width="2.2" opacity="0.96"/>
  <circle cx="48" cy="48" r="28.5" fill="none" stroke="#DDF0FF" stroke-width="1.3" opacity="0.5" stroke-dasharray="4 4.6"/>
  <circle cx="48" cy="48" r="22.2" fill="none" stroke="url(#weakPingA)" stroke-width="2.1" opacity="0.88"/>
  <circle cx="48" cy="48" r="18.6" fill="url(#weakPingB)" opacity="0.8"/>
  <path d="M48 22l8.5 16.8h-6l5.1 17-13.6-15.7h6.1L42 22.6h6z" fill="#F0F9FF" opacity="0.94"/>
  <path d="M48 27.2l6.2 12.3h-4.1l4.2 11.5-9.4-10.6h4.2l-4.2-13.2h3.1z" fill="url(#weakPingA)" opacity="0.96"/>
  <path d="M23 48h8M65 48h8M48 23v8M48 65v8" stroke="#D3E9FF" stroke-width="2.1" stroke-linecap="round" opacity="0.84"/>
  <circle cx="48" cy="48" r="5.6" fill="url(#weakPingCore)" opacity="0.92"/>
  <circle cx="48" cy="48" r="2.4" fill="#FFFFFF" opacity="0.98"/>
</svg>
