<svg width="96" height="96" viewBox="0 0 96 96" fill="none" xmlns="http://www.w3.org/2000/svg">
  <defs>
    <linearGradient id="critA" x1="20" y1="14" x2="76" y2="82" gradientUnits="userSpaceOnUse">
      <stop stop-color="#FFD6A8"/>
      <stop offset="0.46" stop-color="#FF9D70"/>
      <stop offset="1" stop-color="#C167F2"/>
    </linearGradient>
    <filter id="critGlow" x="7" y="7" width="82" height="82" filterUnits="userSpaceOnUse">
      <feGaussianBlur stdDeviation="2.4" result="blur"/>
      <feMerge><feMergeNode in="blur"/><feMergeNode in="SourceGraphic"/></feMerge>
    </filter>
  </defs>
  <circle cx="48" cy="48" r="38" fill="#1A0F1B" stroke="url(#critA)" stroke-width="2.4" opacity="0.96"/>
  <circle cx="48" cy="48" r="31" fill="none" stroke="url(#critA)" stroke-width="1.1" opacity="0.3" stroke-dasharray="3 4"/>
  <path d="M48 18 L57 38 L78 40 L62 53 L66 76 L48 64 L30 76 L34 53 L18 40 L39 38 Z" fill="url(#critA)" opacity="0.24" filter="url(#critGlow)"/>
  <path d="M48 27 L54 41 L69 42 L57 51 L60 66 L48 58 L36 66 L39 51 L27 42 L42 41 Z" fill="url(#critA)" opacity="0.88"/>
  <path d="M48 32 V60" stroke="#FFF0E4" stroke-width="2.4" stroke-linecap="round" opacity="0.88"/>
  <circle cx="48" cy="67" r="3.6" fill="#FFF0E4" opacity="0.94"/>
</svg>
