<svg width="96" height="96" viewBox="0 0 96 96" fill="none" xmlns="http://www.w3.org/2000/svg">
  <defs>
    <linearGradient id="guardA" x1="18" y1="16" x2="78" y2="80" gradientUnits="userSpaceOnUse">
      <stop stop-color="#A8E7FF"/>
      <stop offset="0.5" stop-color="#5CA8E0"/>
      <stop offset="1" stop-color="#7C7CFF"/>
    </linearGradient>
    <filter id="guardGlow" x="9" y="9" width="78" height="78" filterUnits="userSpaceOnUse">
      <feGaussianBlur stdDeviation="2.1" result="blur"/>
      <feMerge><feMergeNode in="blur"/><feMergeNode in="SourceGraphic"/></feMerge>
    </filter>
  </defs>
  <circle cx="48" cy="48" r="37" fill="#0B1520" stroke="url(#guardA)" stroke-width="2.6" opacity="0.96"/>
  <circle cx="48" cy="48" r="30" fill="none" stroke="url(#guardA)" stroke-width="1.1" opacity="0.24" stroke-dasharray="4 6"/>
  <path d="M48 24 C56 30 64 31 70 31 C70 48 63 61 48 72 C33 61 26 48 26 31 C32 31 40 30 48 24 Z" fill="url(#guardA)" opacity="0.25" filter="url(#guardGlow)"/>
  <path d="M48 30 C54 35 60 36 65 36 C65 49 58 58 48 66 C38 58 31 49 31 36 C36 36 42 35 48 30 Z" stroke="#DDF6FF" stroke-width="2" fill="none" opacity="0.88"/>
  <path d="M38 58 L58 38" stroke="#DDF6FF" stroke-width="2.5" stroke-linecap="round" opacity="0.92"/>
  <path d="M56 58 L62 52" stroke="#DDF6FF" stroke-width="2" stroke-linecap="round" opacity="0.72"/>
</svg>
